<?xml version="1.0" encoding="UTF-8"?>
<svg xmlns="http://www.w3.org/2000/svg" xmlns:xlink="http://www.w3.org/1999/xlink" width="21px" height="23px" viewBox="0 0 14 17" version="1.1">
<g id="surface1">
<path d="M 2.644531 9.570312 L 4.574219 3.003906 L 7.546875 3.003906 L 6.945312 5.039062 C 6.941406 5.050781 6.933594 5.0625 6.929688 5.074219 L 5.351562 10.449219 L 6.820312 10.449219 C 6.207031 11.957031 5.726562 13.136719 5.382812 13.992188 C 2.667969 13.964844 1.90625 12.054688 2.570312 9.796875 M 5.394531 13.996094 L 8.972656 8.941406 L 7.457031 8.941406 L 8.777344 5.703125 C 11.042969 5.933594 12.109375 7.683594 11.480469 9.804688 C 10.8125 12.078125 8.097656 13.996094 5.453125 13.996094 C 5.429688 13.996094 5.410156 13.996094 5.394531 13.996094 Z M 5.394531 13.996094 "/>
</g>
</svg>
